# xmcd
#
# Track frame offsets:
#	150
#	12825
#	25241
#	38280
#	49382
#	62863
#	74634
#	86651
#	98616
#	108750
#	117735
#	130624
#	143226
#	156166
#	168029
#	181556
#	195329
#	207777
#	216962
#	229512
#	242235
#
# Disc length: 3389 seconds
#
# Revision: 1
# Processed by: cddbd v1.5.1PL2 Copyright (c) Steve Scherf et al.
# Submitted via: audiograbber 1.83.01
#
DISCID=150d3b15
DTITLE=Various Artist - (IEDS10001-2) Cradle Of Country and Western Music
DYEAR=1955
DGENRE=Country
TTITLE0=Bill Haley - A Yodeller´s Lullaby
TTITLE1=Bob Wills - Brain Cloudy Blues
TTITLE2=Bill Haley - Cotton Haired Gal
TTITLE3=Eddie Miller - Relaese Me
TTITLE4=Al Dexter - New Broom Boogie
TTITLE5=Hank Williams - Why Should We Try Anymore
TTITLE6=Al Dexter - Saturday Night Boogie
TTITLE7=Bob Wills - Take Me Back To Tulsa
TTITLE8=Dan Pickett - Baby Don´t You Want To Go
TTITLE9=Tommy Mooney - Bingo Boogie
TTITLE10=Paul Howard - Drinking All My Troubles Away
TTITLE11=Dickie McBride - I Don´t Get No Lovin´
TTITLE12=Bill Boyd - Jitterburg Jile
TTITLE13=Billy Briggs - Panhandle Shuffle
TTITLE14=Stuart Hamblen - Remember Me
TTITLE15=Rex Griffin - Last Letter
TTITLE16=Bill Monroe - Race Horse Song
TTITLE17=Johnny Bond - Tumbling Tumbleweeds
TTITLE18=Ernest Tubb - You Nearly Lose Your Mind
TTITLE19=Johnny Bond - When The Work´s All Done
TTITLE20=Spade Cooley - Yodelling Polka
EXTD=
EXTT0=
EXTT1=
EXTT2=
EXTT3=
EXTT4=
EXTT5=
EXTT6=
EXTT7=
EXTT8=
EXTT9=
EXTT10=
EXTT11=
EXTT12=
EXTT13=
EXTT14=
EXTT15=
EXTT16=
EXTT17=
EXTT18=
EXTT19=
EXTT20=
PLAYORDER=
